<?xml version="1.0" standalone="no"?>
<!DOCTYPE svg PUBLIC "-//W3C//DTD SVG 20010904//EN"
 "http://www.w3.org/TR/2001/REC-SVG-20010904/DTD/svg10.dtd">
<svg version="1.0" xmlns="http://www.w3.org/2000/svg"
 width="155.000000pt" height="155.000000pt" viewBox="0 0 155.000000 155.000000"
 preserveAspectRatio="xMidYMid meet">
<metadata>
Created by potrace 1.11, written by Peter Selinger 2001-2013
</metadata>
<g transform="translate(0.000000,155.000000) scale(0.100000,-0.100000)"
fill="#000000" stroke="none">
<path d="M158 1350 l-137 -70 1 -104 2 -104 50 22 c49 22 51 24 56 70 l5 47
75 40 c41 21 78 39 82 39 4 0 39 -20 78 -45 l70 -46 0 -99 0 -98 -74 -41 -74
-41 -4 -61 c-1 -33 -1 -65 2 -69 3 -4 63 27 135 69 l130 77 2 165 3 164 -129
78 c-71 42 -130 77 -132 76 -2 0 -66 -31 -141 -69z"/>
<path d="M138 1071 l-138 -76 3 -354 2 -354 30 -16 c17 -9 80 -44 142 -79
l112 -63 133 78 133 79 2 287 1 288 -59 -33 -59 -33 0 -216 0 -216 -70 -47
c-38 -25 -74 -46 -79 -46 -12 0 -141 69 -161 86 -13 11 -15 55 -15 285 l0 272
87 46 88 46 0 73 c0 39 -3 72 -7 71 -5 -1 -70 -35 -145 -78z"/>
<path d="M762 629 c2 -63 7 -94 16 -97 9 -3 12 17 14 77 0 45 1 87 2 93 1 7
-7 14 -17 16 -16 3 -17 -5 -15 -89z"/>
<path d="M1500 626 c0 -79 3 -96 15 -96 12 0 15 16 17 80 0 44 1 86 2 92 1 7
-7 14 -16 16 -16 3 -18 -6 -18 -92z"/>
<path d="M640 651 c0 -6 0 -14 0 -18 0 -5 14 -8 31 -8 23 0 34 -6 39 -20 11
-32 0 -46 -34 -45 -49 3 -56 1 -56 -15 0 -12 13 -15 60 -15 l60 0 0 54 c0 30
-4 57 -9 61 -20 12 -91 17 -91 6z"/>
<path d="M830 642 c0 -13 7 -19 23 -19 39 -1 45 -3 51 -18 11 -30 -5 -45 -50
-45 -32 0 -44 -4 -44 -15 0 -12 42 -15 283 -17 155 -2 305 -1 332 2 l50 5 -3
50 c-2 27 -7 54 -11 58 -5 5 -27 10 -50 12 -44 3 -46 1 -41 -66 l1 -27 -218 2
-218 1 -3 35 c-4 45 -11 51 -61 57 -36 4 -41 2 -41 -15z m598 -21 c7 -4 15
-20 16 -35 3 -24 0 -27 -23 -24 -20 2 -26 9 -27 28 -1 40 8 48 34 31z"/>
<path d="M1500 505 c-10 -13 -9 -15 11 -14 13 0 18 3 11 6 -6 2 -10 9 -6 14 9
15 -2 10 -16 -6z"/>
<path d="M619 455 c0 -5 -1 -41 -2 -80 0 -62 2 -70 19 -73 18 -3 20 3 19 80 0
73 -2 84 -17 84 -10 0 -18 -5 -19 -11z"/>
<path d="M679 466 c-1 -1 -1 -127 0 -149 1 -12 7 -17 19 -15 13 2 16 11 14 36
-5 43 15 41 24 -3 10 -55 39 -47 55 15 14 56 27 50 22 -10 -3 -34 0 -40 17
-40 18 0 20 7 20 85 0 83 -1 85 -22 81 -13 -3 -26 -5 -30 -5 -3 -1 -12 -24
-18 -52 -14 -56 -24 -52 -35 13 -4 21 -10 39 -13 39 -13 3 -52 6 -53 5z"/>
<path d="M879 450 c-1 -18 -1 -120 0 -137 1 -7 8 -13 16 -13 14 0 20 24 16 58
-4 29 17 9 23 -23 5 -25 12 -35 26 -35 14 0 21 12 31 56 14 62 28 51 23 -18
-2 -32 1 -38 17 -38 17 0 19 8 19 84 l0 83 -27 -1 c-24 -1 -29 -7 -44 -56
l-17 -55 -11 45 c-7 25 -14 51 -16 57 -6 18 -55 12 -56 -7z m38 -62 c-3 -8 -6
-5 -6 6 -1 11 2 17 5 13 3 -3 4 -12 1 -19z"/>
<path d="M1079 463 c0 -1 -1 -34 -1 -73 0 -38 1 -74 1 -80 1 -5 21 -10 46 -10
58 0 95 32 95 83 0 54 -27 79 -88 82 -29 1 -52 0 -53 -2z m82 -33 c13 -7 19
-21 19 -44 0 -37 -19 -59 -47 -54 -29 5 -24 106 5 108 2 0 12 -5 23 -10z"/>
<path d="M1284 456 c-2 -6 -12 -36 -23 -66 -10 -30 -22 -63 -26 -72 -5 -14 -2
-18 13 -18 12 0 23 9 27 20 8 26 62 24 71 -2 3 -10 14 -18 25 -18 10 0 19 1
19 3 0 1 -13 38 -29 82 -24 66 -32 80 -51 81 -12 1 -23 -4 -26 -10z m39 -66
c4 -15 0 -20 -15 -20 -14 0 -18 5 -14 16 3 9 6 20 6 25 0 17 17 1 23 -21z"/>
<path d="M1399 454 c-1 -8 -1 -36 -1 -64 0 -95 -3 -90 47 -90 35 0 52 6 70 25
32 31 34 93 5 120 -26 23 -119 30 -121 9z m89 -27 c17 -11 15 -72 -3 -87 -8
-6 -22 -10 -32 -8 -14 3 -18 13 -18 48 -1 56 15 70 53 47z"/>
</g>
</svg>
